<svg width="29" height="30" viewBox="0 0 29 30" fill="none" xmlns="http://www.w3.org/2000/svg">
<path d="M1 1L4.34615 2.48718C4.34615 2.48718 5.46154 2.85897 5.46154 3.39785C5.46154 3.92016 5.46154 5.54849 5.46154 6.57692M24.4231 24.0513C19.3419 24.0513 8.95641 24.0513 8.0641 24.0513C6.94872 24.0513 5.46154 23.6795 5.46154 21.8205C5.46154 21.3366 5.46154 19.7897 5.46154 17.7308M5.46154 6.57692L25.9103 9.55128C25.9103 9.55128 27.0256 9.75856 27.0256 10.6667C27.0256 12.9118 27.0256 16.1649 27.0256 16.9872C27.0256 18.1026 26.282 18.8462 24.4231 18.8462C22.5641 18.8462 8.4359 18.8462 7.32051 18.8462C6.4282 18.8462 5.7094 18.1026 5.46154 17.7308M5.46154 6.57692C5.46154 10.1666 5.46154 14.5571 5.46154 17.7308" stroke="#CDCDCD" stroke-width="2" stroke-linecap="round"/>
<circle cx="10.6667" cy="26.6538" r="2.34615" stroke="#CDCDCD" stroke-width="2"/>
<circle cx="24.0513" cy="26.6538" r="2.34615" stroke="#CDCDCD" stroke-width="2"/>
</svg>
